# Blender v2.62 (sub 0) OBJ File: 'stem.blend'
# www.blender.org
mtllib stem.mtl
o Circle
v 0.000000 0.000000 -1.000000
v 10.000000 0.000000 -1.000000
v -0.000000 0.000000 1.000000
v 10.000000 0.000000 1.000000
v -0.195091 0.000000 0.980785
v 10.195091 0.000000 0.980785
v -0.382684 0.000000 0.923879
v 10.382684 0.000000 0.923879
v -0.555571 0.000000 0.831469
v 10.555571 0.000000 0.831469
v -0.707107 0.000000 0.707106
v 10.707108 0.000000 0.707106
v -0.831470 0.000000 0.555570
v 10.831470 0.000000 0.555570
v -0.923880 0.000000 0.382683
v 10.923880 0.000000 0.382683
v -0.980785 0.000000 0.195089
v 10.980785 0.000000 0.195089
v -1.000000 0.000000 -0.000001
v 11.000000 0.000000 -0.000001
v -0.980785 0.000000 -0.195091
v 10.980785 0.000000 -0.195091
v -0.923879 0.000000 -0.382684
v 10.923880 0.000000 -0.382684
v -0.831469 0.000000 -0.555571
v 10.831469 0.000000 -0.555571
v -0.707106 0.000000 -0.707108
v 10.707106 0.000000 -0.707108
v -0.555569 0.000000 -0.831470
v 10.555569 0.000000 -0.831470
v -0.382682 0.000000 -0.923880
v 10.382682 0.000000 -0.923880
v -0.195089 0.000000 -0.980786
v 10.195089 0.000000 -0.980786
v 0.000000 0.000000 0.000000
v 10.000000 0.000000 0.000000
v 5.000000 0.000000 1.000000
v 5.000000 0.000000 0.000000
v 5.000000 0.000000 -1.000000
v 5.000000 0.500000 -1.000000
v 5.000000 0.500000 0.000000
v 5.000000 0.500000 1.000000
v 0.000000 0.500000 0.000000
v 10.000000 0.500000 0.000000
v -0.195089 0.500000 -0.980786
v 10.195089 0.500000 -0.980786
v -0.382682 0.500000 -0.923880
v 10.382682 0.500000 -0.923880
v -0.555569 0.500000 -0.831470
v 10.555569 0.500000 -0.831470
v -0.707106 0.500000 -0.707108
v 10.707106 0.500000 -0.707108
v -0.831469 0.500000 -0.555571
v 10.831469 0.500000 -0.555571
v -0.923879 0.500000 -0.382684
v 10.923880 0.500000 -0.382684
v -0.980785 0.500000 -0.195091
v 10.980785 0.500000 -0.195091
v -1.000000 0.500000 -0.000001
v 11.000000 0.500000 -0.000001
v -0.980785 0.500000 0.195089
v 10.980785 0.500000 0.195089
v -0.923880 0.500000 0.382683
v 10.923880 0.500000 0.382683
v -0.831470 0.500000 0.555570
v 10.831470 0.500000 0.555570
v -0.707107 0.500000 0.707106
v 10.707108 0.500000 0.707106
v -0.555571 0.500000 0.831469
v 10.555571 0.500000 0.831469
v -0.382684 0.500000 0.923879
v 10.382684 0.500000 0.923879
v -0.195091 0.500000 0.980785
v 10.195091 0.500000 0.980785
v -0.000000 0.500000 1.000000
v 10.000000 0.500000 1.000000
v 0.000000 0.500000 -1.000000
v 10.000000 0.500000 -1.000000
vn 0.000000 -1.000000 0.000000
vn 1.000000 0.000000 0.000000
vn 0.000000 1.000000 0.000000
vn 0.333323 -0.666646 -0.666646
vn -0.035218 -0.696219 -0.716941
vn -0.035218 0.696219 -0.716941
vn 0.333323 0.666646 -0.666646
vn 0.035218 0.696219 -0.716941
vn 0.035218 -0.696219 -0.716941
vn -0.035218 -0.696219 0.716941
vn 0.333323 -0.666646 0.666646
vn 0.333323 0.666646 0.666646
vn -0.035218 0.696219 0.716941
vn 0.035218 -0.696219 0.716941
vn 0.035218 0.696219 0.716941
vn -0.142003 -0.685690 -0.713889
vn -0.142003 0.685690 -0.713889
vn 0.142003 0.685690 -0.713889
vn 0.142003 -0.685690 -0.713889
vn -0.278542 -0.685690 -0.672475
vn -0.278542 0.685690 -0.672475
vn 0.278542 0.685690 -0.672475
vn 0.278542 -0.685690 -0.672475
vn -0.404370 -0.685690 -0.605213
vn -0.404370 0.685690 -0.605213
vn 0.404370 0.685690 -0.605213
vn 0.404370 -0.685690 -0.605213
vn -0.514664 -0.685690 -0.514695
vn -0.514664 0.685690 -0.514695
vn 0.514664 0.685690 -0.514695
vn 0.514664 -0.685690 -0.514695
vn -0.605213 -0.685690 -0.404370
vn -0.605213 0.685690 -0.404370
vn 0.605213 0.685690 -0.404370
vn 0.605213 -0.685690 -0.404370
vn -0.672475 -0.685690 -0.278542
vn -0.672475 0.685690 -0.278542
vn 0.672475 0.685690 -0.278542
vn 0.672475 -0.685690 -0.278542
vn -0.713889 -0.685690 -0.142003
vn -0.713889 0.685690 -0.142003
vn 0.713889 0.685690 -0.142003
vn 0.713889 -0.685690 -0.142003
vn -0.727866 -0.685690 0.000000
vn -0.727866 0.685690 0.000000
vn 0.727866 0.685690 0.000000
vn 0.727866 -0.685690 0.000000
vn -0.713889 -0.685690 0.142003
vn -0.713889 0.685690 0.142003
vn 0.713889 0.685690 0.142003
vn 0.713889 -0.685690 0.142003
vn -0.672475 -0.685690 0.278542
vn -0.672475 0.685690 0.278542
vn 0.672475 0.685690 0.278542
vn 0.672475 -0.685690 0.278542
vn -0.605213 -0.685690 0.404370
vn -0.605213 0.685690 0.404370
vn 0.605213 0.685690 0.404370
vn 0.605213 -0.685690 0.404370
vn -0.514664 -0.685690 0.514664
vn -0.514664 0.685690 0.514664
vn 0.514664 0.685690 0.514664
vn 0.514664 -0.685690 0.514664
vn -0.404370 -0.685690 0.605213
vn -0.404370 0.685690 0.605213
vn 0.404370 0.685690 0.605213
vn 0.404370 -0.685690 0.605213
vn -0.278542 -0.685690 0.672475
vn -0.278542 0.685690 0.672475
vn 0.278542 0.685690 0.672475
vn 0.278542 -0.685690 0.672475
vn -0.142003 -0.685690 0.713889
vn -0.142003 0.685690 0.713889
vn 0.142003 0.685690 0.713889
vn 0.142003 -0.685690 0.713889
usemtl 
s off
f 35//1 3//1 5//1
f 6//1 4//1 36//1
f 35//1 5//1 7//1
f 8//1 6//1 36//1
f 35//1 7//1 9//1
f 10//1 8//1 36//1
f 35//1 9//1 11//1
f 12//1 10//1 36//1
f 35//1 11//1 13//1
f 14//1 12//1 36//1
f 35//1 13//1 15//1
f 16//1 14//1 36//1
f 35//1 15//1 17//1
f 18//1 16//1 36//1
f 35//1 17//1 19//1
f 20//1 18//1 36//1
f 35//1 19//1 21//1
f 22//1 20//1 36//1
f 35//1 21//1 23//1
f 24//1 22//1 36//1
f 35//1 23//1 25//1
f 26//1 24//1 36//1
f 35//1 25//1 27//1
f 28//1 26//1 36//1
f 35//1 27//1 29//1
f 30//1 28//1 36//1
f 35//1 29//1 31//1
f 32//1 30//1 36//1
f 35//1 31//1 33//1
f 34//1 32//1 36//1
f 33//1 1//1 35//1
f 36//1 2//1 34//1
f 3//1 35//1 38//1 37//1
f 38//1 36//1 4//1 37//1
f 35//1 1//1 39//1 38//1
f 39//1 2//1 36//1 38//1
f 38//2 39//2 40//2 41//2
f 37//2 38//2 41//2 42//2
f 73//3 75//3 43//3
f 44//3 76//3 74//3
f 71//3 73//3 43//3
f 44//3 74//3 72//3
f 69//3 71//3 43//3
f 44//3 72//3 70//3
f 67//3 69//3 43//3
f 44//3 70//3 68//3
f 65//3 67//3 43//3
f 44//3 68//3 66//3
f 63//3 65//3 43//3
f 44//3 66//3 64//3
f 61//3 63//3 43//3
f 44//3 64//3 62//3
f 59//3 61//3 43//3
f 44//3 62//3 60//3
f 57//3 59//3 43//3
f 44//3 60//3 58//3
f 55//3 57//3 43//3
f 44//3 58//3 56//3
f 53//3 55//3 43//3
f 44//3 56//3 54//3
f 51//3 53//3 43//3
f 44//3 54//3 52//3
f 49//3 51//3 43//3
f 44//3 52//3 50//3
f 47//3 49//3 43//3
f 44//3 50//3 48//3
f 45//3 47//3 43//3
f 44//3 48//3 46//3
f 43//3 77//3 45//3
f 46//3 78//3 44//3
f 41//3 43//3 75//3 42//3
f 76//3 44//3 41//3 42//3
f 40//3 77//3 43//3 41//3
f 44//3 78//3 40//3 41//3
s 1
f 39//4 1//5 77//6 40//7
f 78//8 2//9 39//4 40//7
f 3//10 37//11 42//12 75//13
f 42//12 37//11 4//14 76//15
f 1//5 33//16 45//17 77//6
f 46//18 34//19 2//9 78//8
f 33//16 31//20 47//21 45//17
f 48//22 32//23 34//19 46//18
f 31//20 29//24 49//25 47//21
f 50//26 30//27 32//23 48//22
f 29//24 27//28 51//29 49//25
f 52//30 28//31 30//27 50//26
f 27//28 25//32 53//33 51//29
f 54//34 26//35 28//31 52//30
f 25//32 23//36 55//37 53//33
f 56//38 24//39 26//35 54//34
f 23//36 21//40 57//41 55//37
f 58//42 22//43 24//39 56//38
f 21//40 19//44 59//45 57//41
f 60//46 20//47 22//43 58//42
f 19//44 17//48 61//49 59//45
f 62//50 18//51 20//47 60//46
f 17//48 15//52 63//53 61//49
f 64//54 16//55 18//51 62//50
f 15//52 13//56 65//57 63//53
f 66//58 14//59 16//55 64//54
f 13//56 11//60 67//61 65//57
f 68//62 12//63 14//59 66//58
f 11//60 9//64 69//65 67//61
f 70//66 10//67 12//63 68//62
f 9//64 7//68 71//69 69//65
f 72//70 8//71 10//67 70//66
f 7//68 5//72 73//73 71//69
f 74//74 6//75 8//71 72//70
f 5//72 3//10 75//13 73//73
f 76//15 4//14 6//75 74//74
